%FSLAX46Y46*%
G04 Gerber Fmt 4.6, Leading zero omitted, Abs format (unit mm)*
G04 Created by KiCad (PCBNEW (2014-09-22 BZR 5144)-product) date 10/3/2014 22:36:59*
%MOMM*%
G01*
G04 APERTURE LIST*
%ADD10C,0.100000*%
%ADD11R,1.920000X1.920000*%
%ADD12O,1.920000X1.920000*%
%ADD13R,1.543000X0.908000*%
%ADD14R,1.400000X1.650000*%
%ADD15R,1.924000X2.432000*%
%ADD16C,1.920000*%
%ADD17C,3.400000*%
%ADD18R,1.670000X0.908000*%
G04 APERTURE END LIST*
D10*
D11*
X162000000Y-100070000D03*
D12*
X162000000Y-97530000D03*
D13*
X171540000Y-109445000D03*
X171540000Y-108175000D03*
X171540000Y-106905000D03*
X171540000Y-105635000D03*
X171540000Y-104365000D03*
X171540000Y-103095000D03*
X171540000Y-101825000D03*
X171540000Y-100555000D03*
X166460000Y-100555000D03*
X166460000Y-101825000D03*
X166460000Y-103095000D03*
X166460000Y-104365000D03*
X166460000Y-105635000D03*
X166460000Y-106905000D03*
X166460000Y-108175000D03*
X166460000Y-109445000D03*
D14*
X178400000Y-94800000D03*
X176400000Y-94800000D03*
X185600000Y-115600000D03*
X187600000Y-115600000D03*
D15*
X173651000Y-96000000D03*
X170349000Y-96000000D03*
D11*
X162000000Y-110740000D03*
D16*
X162000000Y-108200000D03*
X162000000Y-105660000D03*
X194190000Y-96000000D03*
X196730000Y-96000000D03*
X199270000Y-96000000D03*
X201810000Y-96000000D03*
X194190000Y-102000000D03*
X196730000Y-102000000D03*
X199270000Y-102000000D03*
X201810000Y-102000000D03*
X194190000Y-108000000D03*
X196730000Y-108000000D03*
X199270000Y-108000000D03*
X201810000Y-108000000D03*
X194190000Y-114000000D03*
X196730000Y-114000000D03*
X199270000Y-114000000D03*
X201810000Y-114000000D03*
D17*
X205486000Y-91440000D03*
X162179000Y-91440000D03*
X162179000Y-117475000D03*
X205486000Y-117475000D03*
D18*
X178428000Y-96745000D03*
X178428000Y-98015000D03*
X178428000Y-99285000D03*
X178428000Y-100555000D03*
X178428000Y-101825000D03*
X178428000Y-103095000D03*
X178428000Y-104365000D03*
X178428000Y-105635000D03*
X178428000Y-106905000D03*
X178428000Y-108175000D03*
X178428000Y-109445000D03*
X178428000Y-110715000D03*
X178428000Y-111985000D03*
X178428000Y-113255000D03*
X187572000Y-113255000D03*
X187572000Y-111985000D03*
X187572000Y-110715000D03*
X187572000Y-109445000D03*
X187572000Y-108175000D03*
X187572000Y-106905000D03*
X187572000Y-105635000D03*
X187572000Y-104365000D03*
X187572000Y-103095000D03*
X187572000Y-101825000D03*
X187572000Y-100555000D03*
X187572000Y-99285000D03*
X187572000Y-98015000D03*
X187572000Y-96745000D03*
M02*
