%FSLAX46Y46*%
G04 Gerber Fmt 4.6, Leading zero omitted, Abs format (unit mm)*
G04 Created by KiCad (PCBNEW (2014-09-22 BZR 5144)-product) date 10/3/2014 22:36:59*
%MOMM*%
G01*
G04 APERTURE LIST*
%ADD10C,0.100000*%
%ADD11R,1.520000X1.520000*%
%ADD12O,1.520000X1.520000*%
%ADD13R,1.143000X0.508000*%
%ADD14R,1.000000X1.250000*%
%ADD15R,1.524000X2.032000*%
%ADD16C,1.520000*%
%ADD17C,3.000000*%
%ADD18R,1.270000X0.508000*%
%ADD19C,0.889000*%
%ADD20C,0.508000*%
%ADD21C,0.254000*%
G04 APERTURE END LIST*
D10*
D11*
X162000000Y-100070000D03*
D12*
X162000000Y-97530000D03*
D13*
X171540000Y-109445000D03*
X171540000Y-108175000D03*
X171540000Y-106905000D03*
X171540000Y-105635000D03*
X171540000Y-104365000D03*
X171540000Y-103095000D03*
X171540000Y-101825000D03*
X171540000Y-100555000D03*
X166460000Y-100555000D03*
X166460000Y-101825000D03*
X166460000Y-103095000D03*
X166460000Y-104365000D03*
X166460000Y-105635000D03*
X166460000Y-106905000D03*
X166460000Y-108175000D03*
X166460000Y-109445000D03*
D14*
X178400000Y-94800000D03*
X176400000Y-94800000D03*
X185600000Y-115600000D03*
X187600000Y-115600000D03*
D15*
X173651000Y-96000000D03*
X170349000Y-96000000D03*
D11*
X162000000Y-110740000D03*
D16*
X162000000Y-108200000D03*
X162000000Y-105660000D03*
X194190000Y-96000000D03*
X196730000Y-96000000D03*
X199270000Y-96000000D03*
X201810000Y-96000000D03*
X194190000Y-102000000D03*
X196730000Y-102000000D03*
X199270000Y-102000000D03*
X201810000Y-102000000D03*
X194190000Y-108000000D03*
X196730000Y-108000000D03*
X199270000Y-108000000D03*
X201810000Y-108000000D03*
X194190000Y-114000000D03*
X196730000Y-114000000D03*
X199270000Y-114000000D03*
X201810000Y-114000000D03*
D17*
X205486000Y-91440000D03*
X162179000Y-91440000D03*
X162179000Y-117475000D03*
X205486000Y-117475000D03*
D18*
X178428000Y-96745000D03*
X178428000Y-98015000D03*
X178428000Y-99285000D03*
X178428000Y-100555000D03*
X178428000Y-101825000D03*
X178428000Y-103095000D03*
X178428000Y-104365000D03*
X178428000Y-105635000D03*
X178428000Y-106905000D03*
X178428000Y-108175000D03*
X178428000Y-109445000D03*
X178428000Y-110715000D03*
X178428000Y-111985000D03*
X178428000Y-113255000D03*
X187572000Y-113255000D03*
X187572000Y-111985000D03*
X187572000Y-110715000D03*
X187572000Y-109445000D03*
X187572000Y-108175000D03*
X187572000Y-106905000D03*
X187572000Y-105635000D03*
X187572000Y-104365000D03*
X187572000Y-103095000D03*
X187572000Y-101825000D03*
X187572000Y-100555000D03*
X187572000Y-99285000D03*
X187572000Y-98015000D03*
X187572000Y-96745000D03*
D19*
X184382700Y-115147300D03*
X172871300Y-110406600D03*
X164831800Y-109867900D03*
X189148500Y-116071200D03*
X177065400Y-109206200D03*
X184027100Y-102491200D03*
X175725600Y-105345900D03*
X176284400Y-98831700D03*
X173948900Y-103739000D03*
X188927400Y-110727400D03*
X180408700Y-103169700D03*
X191370400Y-102815700D03*
X183192000Y-110034000D03*
X180259700Y-108523600D03*
D20*
X163295000Y-104365000D02*
X166206000Y-104365000D01*
X162000000Y-105660000D02*
X163295000Y-104365000D01*
X185647500Y-115600000D02*
X184694700Y-115600000D01*
X184382700Y-115147300D02*
X184694700Y-115459300D01*
X184694700Y-115459300D02*
X184694700Y-115600000D01*
X178428000Y-110715000D02*
X177284700Y-110715000D01*
X172871300Y-110406600D02*
X176976300Y-110406600D01*
X176976300Y-110406600D02*
X177284700Y-110715000D01*
X166206000Y-105635000D02*
X167857300Y-105635000D01*
X167857300Y-105635000D02*
X167857300Y-103348400D01*
X167857300Y-103348400D02*
X170650700Y-100555000D01*
X171794000Y-100555000D02*
X170650700Y-100555000D01*
X167625700Y-97530000D02*
X170650700Y-100555000D01*
X167625700Y-97530000D02*
X167625700Y-97453000D01*
X167625700Y-97453000D02*
X169078700Y-96000000D01*
X170349000Y-96000000D02*
X169078700Y-96000000D01*
X162000000Y-97530000D02*
X167625700Y-97530000D01*
X173609000Y-93465400D02*
X173609000Y-95958000D01*
X173609000Y-95958000D02*
X173651000Y-96000000D01*
X160658300Y-98728300D02*
X162000000Y-100070000D01*
X162000000Y-100070000D02*
X163270300Y-100070000D01*
X163270300Y-100070000D02*
X165025300Y-101825000D01*
X160658300Y-97059500D02*
X160658300Y-98728300D01*
X161889700Y-95828100D02*
X160658300Y-97059500D01*
X164831800Y-109867900D02*
X165062700Y-109637000D01*
X165062700Y-109637000D02*
X165062700Y-109445000D01*
X188375600Y-115298300D02*
X189148500Y-116071200D01*
X188375600Y-115298300D02*
X188715300Y-114958600D01*
X188715300Y-114958600D02*
X188715300Y-113255000D01*
X167258900Y-95828100D02*
X161889700Y-95828100D01*
X169621600Y-93465400D02*
X167258900Y-95828100D01*
X177525900Y-93465400D02*
X173609000Y-93465400D01*
X173609000Y-93465400D02*
X169621600Y-93465400D01*
X187552500Y-115298300D02*
X188375600Y-115298300D01*
X187572000Y-113255000D02*
X188715300Y-113255000D01*
X178352500Y-94292000D02*
X177525900Y-93465400D01*
X178352500Y-95180700D02*
X178352500Y-94292000D01*
X165025300Y-101825000D02*
X166206000Y-101825000D01*
X187552500Y-115600000D02*
X187552500Y-115298300D01*
X187572000Y-99285000D02*
X186428700Y-99285000D01*
X166206000Y-109445000D02*
X165062700Y-109445000D01*
X187572000Y-113255000D02*
X186428700Y-113255000D01*
X186428700Y-113255000D02*
X186428700Y-99285000D01*
X178352500Y-95180700D02*
X178352500Y-96006800D01*
X178352500Y-96006800D02*
X178352500Y-96669500D01*
X178352500Y-96669500D02*
X178428000Y-96745000D01*
X171794000Y-109445000D02*
X172937300Y-109445000D01*
X177065400Y-109206200D02*
X173176100Y-109206200D01*
X173176100Y-109206200D02*
X172937300Y-109445000D01*
X187572000Y-96745000D02*
X187169400Y-96745000D01*
X187169400Y-96745000D02*
X184027100Y-99887300D01*
X184027100Y-99887300D02*
X184027100Y-102491200D01*
X171794000Y-108175000D02*
X172937300Y-108175000D01*
X175725600Y-105345900D02*
X172937300Y-108134200D01*
X172937300Y-108134200D02*
X172937300Y-108175000D01*
X178428000Y-98015000D02*
X177101100Y-98015000D01*
X177101100Y-98015000D02*
X176284400Y-98831700D01*
X171794000Y-106905000D02*
X172937300Y-106905000D01*
X178428000Y-99285000D02*
X177284700Y-99285000D01*
X177284700Y-99285000D02*
X177284700Y-101856800D01*
X177284700Y-101856800D02*
X172937300Y-106204200D01*
X172937300Y-106204200D02*
X172937300Y-106905000D01*
X170307000Y-110274900D02*
X170307000Y-106045000D01*
X170717000Y-105635000D02*
X171540000Y-105635000D01*
X170307000Y-106045000D02*
X170717000Y-105635000D01*
X178428000Y-111985000D02*
X172017100Y-111985000D01*
X172017100Y-111985000D02*
X170307000Y-110274900D01*
X170307000Y-110274900D02*
X170269700Y-110237600D01*
X171794000Y-104365000D02*
X170650700Y-104365000D01*
X178428000Y-113255000D02*
X171944600Y-113255000D01*
X171944600Y-113255000D02*
X169504700Y-110815100D01*
X169504700Y-110815100D02*
X169504700Y-105511000D01*
X169504700Y-105511000D02*
X170650700Y-104365000D01*
X170650700Y-103095000D02*
X168732600Y-105013100D01*
X168732600Y-105013100D02*
X168732600Y-111254700D01*
X168732600Y-111254700D02*
X176026500Y-118548600D01*
X176026500Y-118548600D02*
X199099900Y-118548600D01*
X201631900Y-111985000D02*
X187572000Y-111985000D01*
X171794000Y-103095000D02*
X170650700Y-103095000D01*
X203133600Y-113486700D02*
X201631900Y-111985000D01*
X199099900Y-118548600D02*
X203133600Y-114514900D01*
X203133600Y-114514900D02*
X203133600Y-113486700D01*
X187572000Y-110715000D02*
X188715300Y-110715000D01*
X171794000Y-101825000D02*
X172937300Y-101825000D01*
X173948900Y-103739000D02*
X173948900Y-102836600D01*
X173948900Y-102836600D02*
X172937300Y-101825000D01*
X188715300Y-110715000D02*
X188727700Y-110727400D01*
X188727700Y-110727400D02*
X188927400Y-110727400D01*
X166206000Y-103095000D02*
X162720100Y-103095000D01*
X162720100Y-103095000D02*
X160653800Y-105161300D01*
X160653800Y-105161300D02*
X160653800Y-106853800D01*
X160653800Y-106853800D02*
X162000000Y-108200000D01*
X165062700Y-107677300D02*
X162000000Y-110740000D01*
X165062700Y-106905000D02*
X165062700Y-107677300D01*
X166206000Y-106905000D02*
X165062700Y-106905000D01*
X167857300Y-108175000D02*
X167857300Y-111893900D01*
X167857300Y-111893900D02*
X175274300Y-119310900D01*
X175274300Y-119310900D02*
X199415800Y-119310900D01*
X193262100Y-98015000D02*
X187572000Y-98015000D01*
X166206000Y-108175000D02*
X167857300Y-108175000D01*
X194350900Y-99103800D02*
X193262100Y-98015000D01*
X199415800Y-119310900D02*
X203928200Y-114798500D01*
X203928200Y-114798500D02*
X203928200Y-101231000D01*
X203928200Y-101231000D02*
X201801000Y-99103800D01*
X201801000Y-99103800D02*
X194350900Y-99103800D01*
X179571300Y-104365000D02*
X180604800Y-104365000D01*
X180604800Y-104365000D02*
X183074300Y-101895500D01*
X183074300Y-101895500D02*
X183074300Y-99627700D01*
X183074300Y-99627700D02*
X186759500Y-95942500D01*
X186759500Y-95942500D02*
X192862200Y-95942500D01*
X192862200Y-95942500D02*
X192919700Y-96000000D01*
X178428000Y-104365000D02*
X179571300Y-104365000D01*
X194190000Y-96000000D02*
X192919700Y-96000000D01*
X178428000Y-103095000D02*
X180334000Y-103095000D01*
X180334000Y-103095000D02*
X180408700Y-103169700D01*
X200584600Y-97314600D02*
X199270000Y-96000000D01*
X202340800Y-97314600D02*
X200584600Y-97314600D01*
X203081000Y-96574400D02*
X202340800Y-97314600D01*
X203081000Y-95428100D02*
X203081000Y-96574400D01*
X201582000Y-93929100D02*
X203081000Y-95428100D01*
X186197200Y-93929100D02*
X201582000Y-93929100D01*
X179571300Y-100555000D02*
X186197200Y-93929100D01*
X178428000Y-100555000D02*
X179571300Y-100555000D01*
X200532500Y-94722500D02*
X201810000Y-96000000D01*
X186673800Y-94722500D02*
X200532500Y-94722500D01*
X179571300Y-101825000D02*
X186673800Y-94722500D01*
X178428000Y-101825000D02*
X179571300Y-101825000D01*
X187572000Y-104365000D02*
X191168600Y-104365000D01*
X191168600Y-104365000D02*
X192919700Y-102613900D01*
X192919700Y-102613900D02*
X192919700Y-102000000D01*
X194190000Y-102000000D02*
X192919700Y-102000000D01*
X187572000Y-103095000D02*
X188715300Y-103095000D01*
X188715300Y-103095000D02*
X188994600Y-102815700D01*
X188994600Y-102815700D02*
X191370400Y-102815700D01*
X200614800Y-103344800D02*
X199270000Y-102000000D01*
X202307300Y-103344800D02*
X200614800Y-103344800D01*
X203080400Y-102571700D02*
X202307300Y-103344800D01*
X203080400Y-101473800D02*
X203080400Y-102571700D01*
X201472800Y-99866200D02*
X203080400Y-101473800D01*
X189404100Y-99866200D02*
X201472800Y-99866200D01*
X188715300Y-100555000D02*
X189404100Y-99866200D01*
X187572000Y-100555000D02*
X188715300Y-100555000D01*
X200513400Y-100703400D02*
X201810000Y-102000000D01*
X191025800Y-100703400D02*
X200513400Y-100703400D01*
X189904200Y-101825000D02*
X191025800Y-100703400D01*
X187572000Y-101825000D02*
X189904200Y-101825000D01*
X187572000Y-105635000D02*
X190554700Y-105635000D01*
X190554700Y-105635000D02*
X192919700Y-108000000D01*
X194190000Y-108000000D02*
X192919700Y-108000000D01*
X187572000Y-106905000D02*
X188715300Y-106905000D01*
X191080700Y-109270400D02*
X188715300Y-106905000D01*
X195459600Y-109270400D02*
X191080700Y-109270400D01*
X196730000Y-108000000D02*
X195459600Y-109270400D01*
X199270000Y-108000000D02*
X200540600Y-106729400D01*
X200540600Y-106729400D02*
X202360800Y-106729400D01*
X202360800Y-106729400D02*
X203097100Y-107465700D01*
X203097100Y-107465700D02*
X203097100Y-108526900D01*
X203097100Y-108526900D02*
X200793300Y-110830700D01*
X200793300Y-110830700D02*
X190378200Y-110830700D01*
X190378200Y-110830700D02*
X188992500Y-109445000D01*
X188992500Y-109445000D02*
X188715300Y-109445000D01*
X187572000Y-109445000D02*
X188715300Y-109445000D01*
X201810000Y-108000000D02*
X199741700Y-110068300D01*
X199741700Y-110068300D02*
X190693800Y-110068300D01*
X190693800Y-110068300D02*
X188800500Y-108175000D01*
X188800500Y-108175000D02*
X188715300Y-108175000D01*
X187572000Y-108175000D02*
X188715300Y-108175000D01*
X183192000Y-110034000D02*
X183192000Y-109030400D01*
X183192000Y-109030400D02*
X179796600Y-105635000D01*
X179796600Y-105635000D02*
X179571300Y-105635000D01*
X178428000Y-105635000D02*
X179571300Y-105635000D01*
X193706000Y-117024000D02*
X196730000Y-114000000D01*
X184912000Y-117024000D02*
X193706000Y-117024000D01*
X181212500Y-113324500D02*
X184912000Y-117024000D01*
X181212500Y-108128900D02*
X181212500Y-113324500D01*
X179988600Y-106905000D02*
X181212500Y-108128900D01*
X179571300Y-106905000D02*
X179988600Y-106905000D01*
X178428000Y-106905000D02*
X179571300Y-106905000D01*
X179571300Y-109445000D02*
X179571300Y-112761300D01*
X179571300Y-112761300D02*
X184596300Y-117786300D01*
X184596300Y-117786300D02*
X195483700Y-117786300D01*
X178428000Y-109445000D02*
X179571300Y-109445000D01*
X195483700Y-117786300D02*
X199270000Y-114000000D01*
X178428000Y-108175000D02*
X179571300Y-108175000D01*
X179571300Y-108175000D02*
X179919900Y-108523600D01*
X179919900Y-108523600D02*
X180259700Y-108523600D01*
D21*
G36*
X177463500Y-95940164D02*
X177433302Y-95952673D01*
X177254673Y-96131301D01*
X177158000Y-96364690D01*
X177158000Y-96617309D01*
X177158000Y-97125309D01*
X177158286Y-97126000D01*
X177101100Y-97126000D01*
X176760894Y-97193671D01*
X176472482Y-97386382D01*
X176106819Y-97752044D01*
X176070616Y-97752013D01*
X175673711Y-97916011D01*
X175369778Y-98219414D01*
X175205087Y-98616032D01*
X175204713Y-99045484D01*
X175368711Y-99442389D01*
X175672114Y-99746322D01*
X176068732Y-99911013D01*
X176395700Y-99911297D01*
X176395700Y-101488564D01*
X174837900Y-103046364D01*
X174837900Y-102836600D01*
X174770229Y-102496394D01*
X174577518Y-102207982D01*
X173565918Y-101196382D01*
X173277506Y-101003671D01*
X172937300Y-100936000D01*
X172237810Y-100936000D01*
X171985191Y-100936000D01*
X171794000Y-100936000D01*
X170842191Y-100936000D01*
X170608802Y-101032673D01*
X170430173Y-101211301D01*
X170333500Y-101444690D01*
X170333500Y-101697309D01*
X170333500Y-102205309D01*
X170357909Y-102264239D01*
X170310494Y-102273671D01*
X170022082Y-102466382D01*
X168103982Y-104384482D01*
X167911271Y-104672894D01*
X167843600Y-105013100D01*
X167843600Y-107286000D01*
X167666214Y-107286000D01*
X167666500Y-107285310D01*
X167666500Y-107032691D01*
X167666500Y-106524691D01*
X167569827Y-106291302D01*
X167391199Y-106112673D01*
X167157810Y-106016000D01*
X166905191Y-106016000D01*
X166206000Y-106016000D01*
X165762191Y-106016000D01*
X165062700Y-106016000D01*
X164722494Y-106083671D01*
X164434082Y-106276382D01*
X164241371Y-106564794D01*
X164173700Y-106905000D01*
X164173700Y-107309064D01*
X163395099Y-108087664D01*
X163395242Y-107923735D01*
X163183313Y-107410828D01*
X162791236Y-107018066D01*
X162579261Y-106930046D01*
X162789172Y-106843313D01*
X163181934Y-106451236D01*
X163394758Y-105938700D01*
X163395121Y-105522114D01*
X163663236Y-105254000D01*
X165762190Y-105254000D01*
X166014809Y-105254000D01*
X166206000Y-105254000D01*
X167157809Y-105254000D01*
X167391198Y-105157327D01*
X167569827Y-104978699D01*
X167666500Y-104745310D01*
X167666500Y-104492691D01*
X167666500Y-103984691D01*
X167569827Y-103751302D01*
X167548525Y-103730000D01*
X167569827Y-103708699D01*
X167666500Y-103475310D01*
X167666500Y-103222691D01*
X167666500Y-102714691D01*
X167569827Y-102481302D01*
X167548525Y-102460000D01*
X167569827Y-102438699D01*
X167666500Y-102205310D01*
X167666500Y-101952691D01*
X167666500Y-101444691D01*
X167569827Y-101211302D01*
X167548525Y-101190000D01*
X167569827Y-101168699D01*
X167666500Y-100935310D01*
X167666500Y-100682691D01*
X167666500Y-100174691D01*
X167569827Y-99941302D01*
X167391199Y-99762673D01*
X167157810Y-99666000D01*
X166905191Y-99666000D01*
X165762191Y-99666000D01*
X165528802Y-99762673D01*
X165350173Y-99941301D01*
X165253500Y-100174690D01*
X165253500Y-100427309D01*
X165253500Y-100795964D01*
X163898918Y-99441382D01*
X163610506Y-99248671D01*
X163395000Y-99205804D01*
X163395000Y-99183691D01*
X163298327Y-98950302D01*
X163119699Y-98771673D01*
X162886310Y-98675000D01*
X162633691Y-98675000D01*
X161862236Y-98675000D01*
X161547300Y-98360064D01*
X161547300Y-97427736D01*
X162257936Y-96717100D01*
X167258900Y-96717100D01*
X167599105Y-96649429D01*
X167599106Y-96649429D01*
X167887518Y-96456718D01*
X169989835Y-94354400D01*
X172720000Y-94354400D01*
X172720000Y-94366683D01*
X172529302Y-94445673D01*
X172350673Y-94624301D01*
X172254000Y-94857690D01*
X172254000Y-95110309D01*
X172254000Y-97142309D01*
X172350673Y-97375698D01*
X172529301Y-97554327D01*
X172762690Y-97651000D01*
X173015309Y-97651000D01*
X174539309Y-97651000D01*
X174772698Y-97554327D01*
X174951327Y-97375699D01*
X175048000Y-97142310D01*
X175048000Y-96889691D01*
X175048000Y-94857691D01*
X174951327Y-94624302D01*
X174772699Y-94445673D01*
X174552346Y-94354400D01*
X177157664Y-94354400D01*
X177265000Y-94461736D01*
X177265000Y-95551309D01*
X177361673Y-95784698D01*
X177463500Y-95886525D01*
X177463500Y-95940164D01*
X177463500Y-95940164D01*
G37*
X177463500Y-95940164D02*
X177433302Y-95952673D01*
X177254673Y-96131301D01*
X177158000Y-96364690D01*
X177158000Y-96617309D01*
X177158000Y-97125309D01*
X177158286Y-97126000D01*
X177101100Y-97126000D01*
X176760894Y-97193671D01*
X176472482Y-97386382D01*
X176106819Y-97752044D01*
X176070616Y-97752013D01*
X175673711Y-97916011D01*
X175369778Y-98219414D01*
X175205087Y-98616032D01*
X175204713Y-99045484D01*
X175368711Y-99442389D01*
X175672114Y-99746322D01*
X176068732Y-99911013D01*
X176395700Y-99911297D01*
X176395700Y-101488564D01*
X174837900Y-103046364D01*
X174837900Y-102836600D01*
X174770229Y-102496394D01*
X174577518Y-102207982D01*
X173565918Y-101196382D01*
X173277506Y-101003671D01*
X172937300Y-100936000D01*
X172237810Y-100936000D01*
X171985191Y-100936000D01*
X171794000Y-100936000D01*
X170842191Y-100936000D01*
X170608802Y-101032673D01*
X170430173Y-101211301D01*
X170333500Y-101444690D01*
X170333500Y-101697309D01*
X170333500Y-102205309D01*
X170357909Y-102264239D01*
X170310494Y-102273671D01*
X170022082Y-102466382D01*
X168103982Y-104384482D01*
X167911271Y-104672894D01*
X167843600Y-105013100D01*
X167843600Y-107286000D01*
X167666214Y-107286000D01*
X167666500Y-107285310D01*
X167666500Y-107032691D01*
X167666500Y-106524691D01*
X167569827Y-106291302D01*
X167391199Y-106112673D01*
X167157810Y-106016000D01*
X166905191Y-106016000D01*
X166206000Y-106016000D01*
X165762191Y-106016000D01*
X165062700Y-106016000D01*
X164722494Y-106083671D01*
X164434082Y-106276382D01*
X164241371Y-106564794D01*
X164173700Y-106905000D01*
X164173700Y-107309064D01*
X163395099Y-108087664D01*
X163395242Y-107923735D01*
X163183313Y-107410828D01*
X162791236Y-107018066D01*
X162579261Y-106930046D01*
X162789172Y-106843313D01*
X163181934Y-106451236D01*
X163394758Y-105938700D01*
X163395121Y-105522114D01*
X163663236Y-105254000D01*
X165762190Y-105254000D01*
X166014809Y-105254000D01*
X166206000Y-105254000D01*
X167157809Y-105254000D01*
X167391198Y-105157327D01*
X167569827Y-104978699D01*
X167666500Y-104745310D01*
X167666500Y-104492691D01*
X167666500Y-103984691D01*
X167569827Y-103751302D01*
X167548525Y-103730000D01*
X167569827Y-103708699D01*
X167666500Y-103475310D01*
X167666500Y-103222691D01*
X167666500Y-102714691D01*
X167569827Y-102481302D01*
X167548525Y-102460000D01*
X167569827Y-102438699D01*
X167666500Y-102205310D01*
X167666500Y-101952691D01*
X167666500Y-101444691D01*
X167569827Y-101211302D01*
X167548525Y-101190000D01*
X167569827Y-101168699D01*
X167666500Y-100935310D01*
X167666500Y-100682691D01*
X167666500Y-100174691D01*
X167569827Y-99941302D01*
X167391199Y-99762673D01*
X167157810Y-99666000D01*
X166905191Y-99666000D01*
X165762191Y-99666000D01*
X165528802Y-99762673D01*
X165350173Y-99941301D01*
X165253500Y-100174690D01*
X165253500Y-100427309D01*
X165253500Y-100795964D01*
X163898918Y-99441382D01*
X163610506Y-99248671D01*
X163395000Y-99205804D01*
X163395000Y-99183691D01*
X163298327Y-98950302D01*
X163119699Y-98771673D01*
X162886310Y-98675000D01*
X162633691Y-98675000D01*
X161862236Y-98675000D01*
X161547300Y-98360064D01*
X161547300Y-97427736D01*
X162257936Y-96717100D01*
X167258900Y-96717100D01*
X167599105Y-96649429D01*
X167599106Y-96649429D01*
X167887518Y-96456718D01*
X169989835Y-94354400D01*
X172720000Y-94354400D01*
X172720000Y-94366683D01*
X172529302Y-94445673D01*
X172350673Y-94624301D01*
X172254000Y-94857690D01*
X172254000Y-95110309D01*
X172254000Y-97142309D01*
X172350673Y-97375698D01*
X172529301Y-97554327D01*
X172762690Y-97651000D01*
X173015309Y-97651000D01*
X174539309Y-97651000D01*
X174772698Y-97554327D01*
X174951327Y-97375699D01*
X175048000Y-97142310D01*
X175048000Y-96889691D01*
X175048000Y-94857691D01*
X174951327Y-94624302D01*
X174772699Y-94445673D01*
X174552346Y-94354400D01*
X177157664Y-94354400D01*
X177265000Y-94461736D01*
X177265000Y-95551309D01*
X177361673Y-95784698D01*
X177463500Y-95886525D01*
X177463500Y-95940164D01*
G36*
X178682300Y-111096000D02*
X178428000Y-111096000D01*
X177666691Y-111096000D01*
X172385336Y-111096000D01*
X171623336Y-110334000D01*
X171794000Y-110334000D01*
X172237809Y-110334000D01*
X172937300Y-110334000D01*
X173277505Y-110266329D01*
X173277506Y-110266329D01*
X173533618Y-110095200D01*
X176427536Y-110095200D01*
X176453114Y-110120822D01*
X176849732Y-110285513D01*
X177279184Y-110285887D01*
X177422601Y-110226627D01*
X177433301Y-110237327D01*
X177666690Y-110334000D01*
X177919309Y-110334000D01*
X178428000Y-110334000D01*
X178682300Y-110334000D01*
X178682300Y-111096000D01*
X178682300Y-111096000D01*
G37*
X178682300Y-111096000D02*
X178428000Y-111096000D01*
X177666691Y-111096000D01*
X172385336Y-111096000D01*
X171623336Y-110334000D01*
X171794000Y-110334000D01*
X172237809Y-110334000D01*
X172937300Y-110334000D01*
X173277505Y-110266329D01*
X173277506Y-110266329D01*
X173533618Y-110095200D01*
X176427536Y-110095200D01*
X176453114Y-110120822D01*
X176849732Y-110285513D01*
X177279184Y-110285887D01*
X177422601Y-110226627D01*
X177433301Y-110237327D01*
X177666690Y-110334000D01*
X177919309Y-110334000D01*
X178428000Y-110334000D01*
X178682300Y-110334000D01*
X178682300Y-111096000D01*
G36*
X187826300Y-114340000D02*
X186973691Y-114340000D01*
X186740302Y-114436673D01*
X186561673Y-114615301D01*
X186465000Y-114848690D01*
X186465000Y-115101309D01*
X186465000Y-116135000D01*
X185280235Y-116135000D01*
X182101500Y-112956264D01*
X182101500Y-109197136D01*
X182301749Y-109397385D01*
X182277378Y-109421714D01*
X182112687Y-109818332D01*
X182112313Y-110247784D01*
X182276311Y-110644689D01*
X182579714Y-110948622D01*
X182976332Y-111113313D01*
X183405784Y-111113687D01*
X183802689Y-110949689D01*
X184106622Y-110646286D01*
X184271313Y-110249668D01*
X184271687Y-109820216D01*
X184107689Y-109423311D01*
X184081000Y-109396575D01*
X184081000Y-109030400D01*
X184013329Y-108690195D01*
X184013329Y-108690194D01*
X183820618Y-108401782D01*
X180661548Y-105242712D01*
X180945005Y-105186329D01*
X180945006Y-105186329D01*
X181233418Y-104993618D01*
X183118273Y-103108762D01*
X183414814Y-103405822D01*
X183811432Y-103570513D01*
X184240884Y-103570887D01*
X184637789Y-103406889D01*
X184941722Y-103103486D01*
X185106413Y-102706868D01*
X185106787Y-102277416D01*
X184942789Y-101880511D01*
X184916100Y-101853775D01*
X184916100Y-100255536D01*
X185539700Y-99631936D01*
X185539700Y-113255000D01*
X185607371Y-113595206D01*
X185800082Y-113883618D01*
X186088494Y-114076329D01*
X186428700Y-114144000D01*
X186810690Y-114144000D01*
X187063309Y-114144000D01*
X187572000Y-114144000D01*
X187826300Y-114144000D01*
X187826300Y-114340000D01*
X187826300Y-114340000D01*
G37*
X187826300Y-114340000D02*
X186973691Y-114340000D01*
X186740302Y-114436673D01*
X186561673Y-114615301D01*
X186465000Y-114848690D01*
X186465000Y-115101309D01*
X186465000Y-116135000D01*
X185280235Y-116135000D01*
X182101500Y-112956264D01*
X182101500Y-109197136D01*
X182301749Y-109397385D01*
X182277378Y-109421714D01*
X182112687Y-109818332D01*
X182112313Y-110247784D01*
X182276311Y-110644689D01*
X182579714Y-110948622D01*
X182976332Y-111113313D01*
X183405784Y-111113687D01*
X183802689Y-110949689D01*
X184106622Y-110646286D01*
X184271313Y-110249668D01*
X184271687Y-109820216D01*
X184107689Y-109423311D01*
X184081000Y-109396575D01*
X184081000Y-109030400D01*
X184013329Y-108690195D01*
X184013329Y-108690194D01*
X183820618Y-108401782D01*
X180661548Y-105242712D01*
X180945005Y-105186329D01*
X180945006Y-105186329D01*
X181233418Y-104993618D01*
X183118273Y-103108762D01*
X183414814Y-103405822D01*
X183811432Y-103570513D01*
X184240884Y-103570887D01*
X184637789Y-103406889D01*
X184941722Y-103103486D01*
X185106413Y-102706868D01*
X185106787Y-102277416D01*
X184942789Y-101880511D01*
X184916100Y-101853775D01*
X184916100Y-100255536D01*
X185539700Y-99631936D01*
X185539700Y-113255000D01*
X185607371Y-113595206D01*
X185800082Y-113883618D01*
X186088494Y-114076329D01*
X186428700Y-114144000D01*
X186810690Y-114144000D01*
X187063309Y-114144000D01*
X187572000Y-114144000D01*
X187826300Y-114144000D01*
X187826300Y-114340000D01*
M02*
