%FSLAX46Y46*%
G04 Gerber Fmt 4.6, Leading zero omitted, Abs format (unit mm)*
G04 Created by KiCad (PCBNEW (2014-09-22 BZR 5144)-product) date 10/3/2014 22:36:59*
%MOMM*%
G01*
G04 APERTURE LIST*
%ADD10C,0.100000*%
%ADD11R,1.520000X1.520000*%
%ADD12O,1.520000X1.520000*%
%ADD13C,1.520000*%
%ADD14C,3.000000*%
%ADD15C,0.889000*%
%ADD16C,0.508000*%
%ADD17C,0.254000*%
G04 APERTURE END LIST*
D10*
D11*
X162000000Y-100070000D03*
D12*
X162000000Y-97530000D03*
D11*
X162000000Y-110740000D03*
D13*
X162000000Y-108200000D03*
X162000000Y-105660000D03*
X194190000Y-96000000D03*
X196730000Y-96000000D03*
X199270000Y-96000000D03*
X201810000Y-96000000D03*
X194190000Y-102000000D03*
X196730000Y-102000000D03*
X199270000Y-102000000D03*
X201810000Y-102000000D03*
X194190000Y-108000000D03*
X196730000Y-108000000D03*
X199270000Y-108000000D03*
X201810000Y-108000000D03*
X194190000Y-114000000D03*
X196730000Y-114000000D03*
X199270000Y-114000000D03*
X201810000Y-114000000D03*
D14*
X205486000Y-91440000D03*
X162179000Y-91440000D03*
X162179000Y-117475000D03*
X205486000Y-117475000D03*
D15*
X184382700Y-115147300D03*
X172871300Y-110406600D03*
X164831800Y-109867900D03*
X189148500Y-116071200D03*
X177065400Y-109206200D03*
X184027100Y-102491200D03*
X175725600Y-105345900D03*
X176284400Y-98831700D03*
X173948900Y-103739000D03*
X188927400Y-110727400D03*
X180408700Y-103169700D03*
X191370400Y-102815700D03*
X183192000Y-110034000D03*
X180259700Y-108523600D03*
D16*
X172871300Y-110406600D02*
X177612000Y-115147300D01*
X177612000Y-115147300D02*
X184382700Y-115147300D01*
X172871300Y-108401300D02*
X172871300Y-110406600D01*
X162000000Y-97530000D02*
X172871300Y-108401300D01*
X162000000Y-100070000D02*
X162000000Y-101340300D01*
X162000000Y-101340300D02*
X164831800Y-104172100D01*
X164831800Y-104172100D02*
X164831800Y-109867900D01*
X164831800Y-109867900D02*
X171064000Y-116100100D01*
X171064000Y-116100100D02*
X189119600Y-116100100D01*
X189119600Y-116100100D02*
X189148500Y-116071200D01*
X184027100Y-102491200D02*
X177312100Y-109206200D01*
X177312100Y-109206200D02*
X177065400Y-109206200D01*
X176284400Y-98831700D02*
X176284400Y-104787100D01*
X176284400Y-104787100D02*
X175725600Y-105345900D01*
X188927400Y-110727400D02*
X188650200Y-111004600D01*
X188650200Y-111004600D02*
X177441100Y-111004600D01*
X177441100Y-111004600D02*
X173948900Y-107512400D01*
X173948900Y-107512400D02*
X173948900Y-103739000D01*
X180408700Y-103169700D02*
X186308000Y-97270400D01*
X186308000Y-97270400D02*
X195459600Y-97270400D01*
X195459600Y-97270400D02*
X196730000Y-96000000D01*
X191370400Y-102815700D02*
X191825100Y-103270400D01*
X191825100Y-103270400D02*
X195459600Y-103270400D01*
X195459600Y-103270400D02*
X196730000Y-102000000D01*
X192919700Y-114000000D02*
X192919700Y-113372200D01*
X192919700Y-113372200D02*
X189322100Y-109774600D01*
X189322100Y-109774600D02*
X183451400Y-109774600D01*
X183451400Y-109774600D02*
X183192000Y-110034000D01*
X194190000Y-114000000D02*
X192919700Y-114000000D01*
X189149100Y-108523600D02*
X180259700Y-108523600D01*
X191270100Y-110644600D02*
X189149100Y-108523600D01*
X198454600Y-110644600D02*
X191270100Y-110644600D01*
X201810000Y-114000000D02*
X198454600Y-110644600D01*
D17*
G36*
X207090000Y-116059818D02*
X206696959Y-115666091D01*
X205912541Y-115340372D01*
X205063185Y-115339630D01*
X204278200Y-115663980D01*
X203677091Y-116264041D01*
X203351372Y-117048459D01*
X203350630Y-117897815D01*
X203674980Y-118682800D01*
X204181295Y-119190000D01*
X203205242Y-119190000D01*
X203205242Y-113723735D01*
X203205242Y-107723735D01*
X203205242Y-101723735D01*
X203205242Y-95723735D01*
X202993313Y-95210828D01*
X202601236Y-94818066D01*
X202088700Y-94605242D01*
X201533735Y-94604758D01*
X201020828Y-94816687D01*
X200628066Y-95208764D01*
X200540046Y-95420738D01*
X200453313Y-95210828D01*
X200061236Y-94818066D01*
X199548700Y-94605242D01*
X198993735Y-94604758D01*
X198480828Y-94816687D01*
X198088066Y-95208764D01*
X198000046Y-95420738D01*
X197913313Y-95210828D01*
X197521236Y-94818066D01*
X197008700Y-94605242D01*
X196453735Y-94604758D01*
X195940828Y-94816687D01*
X195548066Y-95208764D01*
X195460046Y-95420738D01*
X195373313Y-95210828D01*
X194981236Y-94818066D01*
X194468700Y-94605242D01*
X193913735Y-94604758D01*
X193400828Y-94816687D01*
X193008066Y-95208764D01*
X192795242Y-95721300D01*
X192794758Y-96276265D01*
X192838198Y-96381400D01*
X186308000Y-96381400D01*
X185967794Y-96449071D01*
X185679382Y-96641782D01*
X180231119Y-102090044D01*
X180194916Y-102090013D01*
X179798011Y-102254011D01*
X179494078Y-102557414D01*
X179329387Y-102954032D01*
X179329013Y-103383484D01*
X179493011Y-103780389D01*
X179796414Y-104084322D01*
X180193032Y-104249013D01*
X180622484Y-104249387D01*
X181019389Y-104085389D01*
X181323322Y-103781986D01*
X181488013Y-103385368D01*
X181488045Y-103347590D01*
X186676236Y-98159400D01*
X195459600Y-98159400D01*
X195799805Y-98091729D01*
X195799806Y-98091729D01*
X196088218Y-97899018D01*
X196592354Y-97394881D01*
X197006265Y-97395242D01*
X197519172Y-97183313D01*
X197911934Y-96791236D01*
X197999953Y-96579261D01*
X198086687Y-96789172D01*
X198478764Y-97181934D01*
X198991300Y-97394758D01*
X199546265Y-97395242D01*
X200059172Y-97183313D01*
X200451934Y-96791236D01*
X200539953Y-96579261D01*
X200626687Y-96789172D01*
X201018764Y-97181934D01*
X201531300Y-97394758D01*
X202086265Y-97395242D01*
X202599172Y-97183313D01*
X202991934Y-96791236D01*
X203204758Y-96278700D01*
X203205242Y-95723735D01*
X203205242Y-101723735D01*
X202993313Y-101210828D01*
X202601236Y-100818066D01*
X202088700Y-100605242D01*
X201533735Y-100604758D01*
X201020828Y-100816687D01*
X200628066Y-101208764D01*
X200540046Y-101420738D01*
X200453313Y-101210828D01*
X200061236Y-100818066D01*
X199548700Y-100605242D01*
X198993735Y-100604758D01*
X198480828Y-100816687D01*
X198088066Y-101208764D01*
X198000046Y-101420738D01*
X197913313Y-101210828D01*
X197521236Y-100818066D01*
X197008700Y-100605242D01*
X196453735Y-100604758D01*
X195940828Y-100816687D01*
X195548066Y-101208764D01*
X195460046Y-101420738D01*
X195373313Y-101210828D01*
X194981236Y-100818066D01*
X194468700Y-100605242D01*
X193913735Y-100604758D01*
X193400828Y-100816687D01*
X193008066Y-101208764D01*
X192795242Y-101721300D01*
X192794758Y-102276265D01*
X192838198Y-102381400D01*
X192358971Y-102381400D01*
X192286089Y-102205011D01*
X191982686Y-101901078D01*
X191586068Y-101736387D01*
X191156616Y-101736013D01*
X190759711Y-101900011D01*
X190455778Y-102203414D01*
X190291087Y-102600032D01*
X190290713Y-103029484D01*
X190454711Y-103426389D01*
X190758114Y-103730322D01*
X191154732Y-103895013D01*
X191192509Y-103895045D01*
X191196482Y-103899018D01*
X191484894Y-104091729D01*
X191484895Y-104091729D01*
X191825100Y-104159400D01*
X195459600Y-104159400D01*
X195799805Y-104091729D01*
X195799806Y-104091729D01*
X196088218Y-103899018D01*
X196592354Y-103394881D01*
X197006265Y-103395242D01*
X197519172Y-103183313D01*
X197911934Y-102791236D01*
X197999953Y-102579261D01*
X198086687Y-102789172D01*
X198478764Y-103181934D01*
X198991300Y-103394758D01*
X199546265Y-103395242D01*
X200059172Y-103183313D01*
X200451934Y-102791236D01*
X200539953Y-102579261D01*
X200626687Y-102789172D01*
X201018764Y-103181934D01*
X201531300Y-103394758D01*
X202086265Y-103395242D01*
X202599172Y-103183313D01*
X202991934Y-102791236D01*
X203204758Y-102278700D01*
X203205242Y-101723735D01*
X203205242Y-107723735D01*
X202993313Y-107210828D01*
X202601236Y-106818066D01*
X202088700Y-106605242D01*
X201533735Y-106604758D01*
X201020828Y-106816687D01*
X200628066Y-107208764D01*
X200540046Y-107420738D01*
X200453313Y-107210828D01*
X200061236Y-106818066D01*
X199548700Y-106605242D01*
X198993735Y-106604758D01*
X198480828Y-106816687D01*
X198088066Y-107208764D01*
X198000046Y-107420738D01*
X197913313Y-107210828D01*
X197521236Y-106818066D01*
X197008700Y-106605242D01*
X196453735Y-106604758D01*
X195940828Y-106816687D01*
X195548066Y-107208764D01*
X195460046Y-107420738D01*
X195373313Y-107210828D01*
X194981236Y-106818066D01*
X194468700Y-106605242D01*
X193913735Y-106604758D01*
X193400828Y-106816687D01*
X193008066Y-107208764D01*
X192795242Y-107721300D01*
X192794758Y-108276265D01*
X193006687Y-108789172D01*
X193398764Y-109181934D01*
X193911300Y-109394758D01*
X194466265Y-109395242D01*
X194979172Y-109183313D01*
X195371934Y-108791236D01*
X195459953Y-108579261D01*
X195546687Y-108789172D01*
X195938764Y-109181934D01*
X196451300Y-109394758D01*
X197006265Y-109395242D01*
X197519172Y-109183313D01*
X197911934Y-108791236D01*
X197999953Y-108579261D01*
X198086687Y-108789172D01*
X198478764Y-109181934D01*
X198991300Y-109394758D01*
X199546265Y-109395242D01*
X200059172Y-109183313D01*
X200451934Y-108791236D01*
X200539953Y-108579261D01*
X200626687Y-108789172D01*
X201018764Y-109181934D01*
X201531300Y-109394758D01*
X202086265Y-109395242D01*
X202599172Y-109183313D01*
X202991934Y-108791236D01*
X203204758Y-108278700D01*
X203205242Y-107723735D01*
X203205242Y-113723735D01*
X202993313Y-113210828D01*
X202601236Y-112818066D01*
X202088700Y-112605242D01*
X201672114Y-112604878D01*
X199083218Y-110015982D01*
X198794806Y-109823271D01*
X198454600Y-109755600D01*
X191638336Y-109755600D01*
X189777718Y-107894982D01*
X189489306Y-107702271D01*
X189149100Y-107634600D01*
X180897563Y-107634600D01*
X180871986Y-107608978D01*
X180475368Y-107444287D01*
X180331374Y-107444161D01*
X184204680Y-103570855D01*
X184240884Y-103570887D01*
X184637789Y-103406889D01*
X184941722Y-103103486D01*
X185106413Y-102706868D01*
X185106787Y-102277416D01*
X184942789Y-101880511D01*
X184639386Y-101576578D01*
X184242768Y-101411887D01*
X183813316Y-101411513D01*
X183416411Y-101575511D01*
X183112478Y-101878914D01*
X182947787Y-102275532D01*
X182947754Y-102313309D01*
X177134304Y-108126759D01*
X176851616Y-108126513D01*
X176454711Y-108290511D01*
X176219273Y-108525537D01*
X174837900Y-107144164D01*
X174837900Y-105984626D01*
X175113314Y-106260522D01*
X175509932Y-106425213D01*
X175939384Y-106425587D01*
X176336289Y-106261589D01*
X176640222Y-105958186D01*
X176804913Y-105561568D01*
X176804945Y-105523790D01*
X176913018Y-105415718D01*
X177105729Y-105127306D01*
X177105730Y-105127305D01*
X177173400Y-104787100D01*
X177173400Y-99469563D01*
X177199022Y-99443986D01*
X177363713Y-99047368D01*
X177364087Y-98617916D01*
X177200089Y-98221011D01*
X176896686Y-97917078D01*
X176500068Y-97752387D01*
X176070616Y-97752013D01*
X175673711Y-97916011D01*
X175369778Y-98219414D01*
X175205087Y-98616032D01*
X175204713Y-99045484D01*
X175368711Y-99442389D01*
X175395400Y-99469124D01*
X175395400Y-104314315D01*
X175114911Y-104430211D01*
X174837900Y-104706738D01*
X174837900Y-104376863D01*
X174863522Y-104351286D01*
X175028213Y-103954668D01*
X175028587Y-103525216D01*
X174864589Y-103128311D01*
X174561186Y-102824378D01*
X174164568Y-102659687D01*
X173735116Y-102659313D01*
X173338211Y-102823311D01*
X173034278Y-103126714D01*
X172869587Y-103523332D01*
X172869213Y-103952784D01*
X173033211Y-104349689D01*
X173059900Y-104376424D01*
X173059900Y-107512400D01*
X173127571Y-107852606D01*
X173320282Y-108141018D01*
X176812482Y-111633218D01*
X177100894Y-111825929D01*
X177100895Y-111825930D01*
X177441100Y-111893600D01*
X188650200Y-111893600D01*
X188990405Y-111825929D01*
X188990406Y-111825929D01*
X189018763Y-111806980D01*
X189018764Y-111806980D01*
X189141184Y-111807087D01*
X189538089Y-111643089D01*
X189735893Y-111445629D01*
X192030700Y-113740436D01*
X192030700Y-114000000D01*
X192098371Y-114340206D01*
X192291082Y-114628618D01*
X192579494Y-114821329D01*
X192919700Y-114889000D01*
X193106340Y-114889000D01*
X193398764Y-115181934D01*
X193911300Y-115394758D01*
X194466265Y-115395242D01*
X194979172Y-115183313D01*
X195371934Y-114791236D01*
X195459953Y-114579261D01*
X195546687Y-114789172D01*
X195938764Y-115181934D01*
X196451300Y-115394758D01*
X197006265Y-115395242D01*
X197519172Y-115183313D01*
X197911934Y-114791236D01*
X197999953Y-114579261D01*
X198086687Y-114789172D01*
X198478764Y-115181934D01*
X198991300Y-115394758D01*
X199546265Y-115395242D01*
X200059172Y-115183313D01*
X200451934Y-114791236D01*
X200539953Y-114579261D01*
X200626687Y-114789172D01*
X201018764Y-115181934D01*
X201531300Y-115394758D01*
X202086265Y-115395242D01*
X202599172Y-115183313D01*
X202991934Y-114791236D01*
X203204758Y-114278700D01*
X203205242Y-113723735D01*
X203205242Y-119190000D01*
X190228187Y-119190000D01*
X190228187Y-115857416D01*
X190064189Y-115460511D01*
X189760786Y-115156578D01*
X189364168Y-114991887D01*
X188934716Y-114991513D01*
X188537811Y-115155511D01*
X188482124Y-115211100D01*
X171432236Y-115211100D01*
X165911455Y-109690319D01*
X165911487Y-109654116D01*
X165747489Y-109257211D01*
X165720800Y-109230475D01*
X165720800Y-104172100D01*
X165653129Y-103831895D01*
X165653129Y-103831894D01*
X165460418Y-103543482D01*
X163202480Y-101285544D01*
X163298327Y-101189699D01*
X163395000Y-100956310D01*
X163395000Y-100703691D01*
X163395000Y-99183691D01*
X163298327Y-98950302D01*
X163119699Y-98771673D01*
X162886310Y-98675000D01*
X162633691Y-98675000D01*
X161113691Y-98675000D01*
X160880302Y-98771673D01*
X160701673Y-98950301D01*
X160605000Y-99183690D01*
X160605000Y-99436309D01*
X160605000Y-100956309D01*
X160701673Y-101189698D01*
X160880301Y-101368327D01*
X161113690Y-101465000D01*
X161135804Y-101465000D01*
X161178671Y-101680506D01*
X161371382Y-101968918D01*
X163942800Y-104540336D01*
X163942800Y-109230036D01*
X163917178Y-109255614D01*
X163752487Y-109652232D01*
X163752113Y-110081684D01*
X163916111Y-110478589D01*
X164219514Y-110782522D01*
X164616132Y-110947213D01*
X164653909Y-110947245D01*
X170435382Y-116728718D01*
X170723794Y-116921429D01*
X170723795Y-116921429D01*
X171064000Y-116989100D01*
X188544108Y-116989100D01*
X188932832Y-117150513D01*
X189362284Y-117150887D01*
X189759189Y-116986889D01*
X190063122Y-116683486D01*
X190227813Y-116286868D01*
X190228187Y-115857416D01*
X190228187Y-119190000D01*
X163482987Y-119190000D01*
X163987909Y-118685959D01*
X164313628Y-117901541D01*
X164314370Y-117052185D01*
X163990020Y-116267200D01*
X163395242Y-115671383D01*
X163395242Y-107923735D01*
X163183313Y-107410828D01*
X162791236Y-107018066D01*
X162579261Y-106930046D01*
X162789172Y-106843313D01*
X163181934Y-106451236D01*
X163394758Y-105938700D01*
X163395242Y-105383735D01*
X163183313Y-104870828D01*
X162791236Y-104478066D01*
X162278700Y-104265242D01*
X161723735Y-104264758D01*
X161210828Y-104476687D01*
X160818066Y-104868764D01*
X160605242Y-105381300D01*
X160604758Y-105936265D01*
X160816687Y-106449172D01*
X161208764Y-106841934D01*
X161420738Y-106929953D01*
X161210828Y-107016687D01*
X160818066Y-107408764D01*
X160605242Y-107921300D01*
X160604758Y-108476265D01*
X160816687Y-108989172D01*
X161171894Y-109345000D01*
X161113691Y-109345000D01*
X160880302Y-109441673D01*
X160701673Y-109620301D01*
X160605000Y-109853690D01*
X160605000Y-110106309D01*
X160605000Y-111626309D01*
X160701673Y-111859698D01*
X160880301Y-112038327D01*
X161113690Y-112135000D01*
X161366309Y-112135000D01*
X162886309Y-112135000D01*
X163119698Y-112038327D01*
X163298327Y-111859699D01*
X163395000Y-111626310D01*
X163395000Y-111373691D01*
X163395000Y-109853691D01*
X163298327Y-109620302D01*
X163119699Y-109441673D01*
X162886310Y-109345000D01*
X162827551Y-109345000D01*
X163181934Y-108991236D01*
X163394758Y-108478700D01*
X163395242Y-107923735D01*
X163395242Y-115671383D01*
X163389959Y-115666091D01*
X162605541Y-115340372D01*
X161756185Y-115339630D01*
X160971200Y-115663980D01*
X160370091Y-116264041D01*
X160310000Y-116408756D01*
X160310000Y-92507478D01*
X160367980Y-92647800D01*
X160968041Y-93248909D01*
X161752459Y-93574628D01*
X162601815Y-93575370D01*
X163386800Y-93251020D01*
X163987909Y-92650959D01*
X164313628Y-91866541D01*
X164314370Y-91017185D01*
X163990020Y-90232200D01*
X163468730Y-89710000D01*
X204197038Y-89710000D01*
X203677091Y-90229041D01*
X203351372Y-91013459D01*
X203350630Y-91862815D01*
X203674980Y-92647800D01*
X204275041Y-93248909D01*
X205059459Y-93574628D01*
X205908815Y-93575370D01*
X206693800Y-93251020D01*
X207090000Y-92855510D01*
X207090000Y-116059818D01*
X207090000Y-116059818D01*
G37*
X207090000Y-116059818D02*
X206696959Y-115666091D01*
X205912541Y-115340372D01*
X205063185Y-115339630D01*
X204278200Y-115663980D01*
X203677091Y-116264041D01*
X203351372Y-117048459D01*
X203350630Y-117897815D01*
X203674980Y-118682800D01*
X204181295Y-119190000D01*
X203205242Y-119190000D01*
X203205242Y-113723735D01*
X203205242Y-107723735D01*
X203205242Y-101723735D01*
X203205242Y-95723735D01*
X202993313Y-95210828D01*
X202601236Y-94818066D01*
X202088700Y-94605242D01*
X201533735Y-94604758D01*
X201020828Y-94816687D01*
X200628066Y-95208764D01*
X200540046Y-95420738D01*
X200453313Y-95210828D01*
X200061236Y-94818066D01*
X199548700Y-94605242D01*
X198993735Y-94604758D01*
X198480828Y-94816687D01*
X198088066Y-95208764D01*
X198000046Y-95420738D01*
X197913313Y-95210828D01*
X197521236Y-94818066D01*
X197008700Y-94605242D01*
X196453735Y-94604758D01*
X195940828Y-94816687D01*
X195548066Y-95208764D01*
X195460046Y-95420738D01*
X195373313Y-95210828D01*
X194981236Y-94818066D01*
X194468700Y-94605242D01*
X193913735Y-94604758D01*
X193400828Y-94816687D01*
X193008066Y-95208764D01*
X192795242Y-95721300D01*
X192794758Y-96276265D01*
X192838198Y-96381400D01*
X186308000Y-96381400D01*
X185967794Y-96449071D01*
X185679382Y-96641782D01*
X180231119Y-102090044D01*
X180194916Y-102090013D01*
X179798011Y-102254011D01*
X179494078Y-102557414D01*
X179329387Y-102954032D01*
X179329013Y-103383484D01*
X179493011Y-103780389D01*
X179796414Y-104084322D01*
X180193032Y-104249013D01*
X180622484Y-104249387D01*
X181019389Y-104085389D01*
X181323322Y-103781986D01*
X181488013Y-103385368D01*
X181488045Y-103347590D01*
X186676236Y-98159400D01*
X195459600Y-98159400D01*
X195799805Y-98091729D01*
X195799806Y-98091729D01*
X196088218Y-97899018D01*
X196592354Y-97394881D01*
X197006265Y-97395242D01*
X197519172Y-97183313D01*
X197911934Y-96791236D01*
X197999953Y-96579261D01*
X198086687Y-96789172D01*
X198478764Y-97181934D01*
X198991300Y-97394758D01*
X199546265Y-97395242D01*
X200059172Y-97183313D01*
X200451934Y-96791236D01*
X200539953Y-96579261D01*
X200626687Y-96789172D01*
X201018764Y-97181934D01*
X201531300Y-97394758D01*
X202086265Y-97395242D01*
X202599172Y-97183313D01*
X202991934Y-96791236D01*
X203204758Y-96278700D01*
X203205242Y-95723735D01*
X203205242Y-101723735D01*
X202993313Y-101210828D01*
X202601236Y-100818066D01*
X202088700Y-100605242D01*
X201533735Y-100604758D01*
X201020828Y-100816687D01*
X200628066Y-101208764D01*
X200540046Y-101420738D01*
X200453313Y-101210828D01*
X200061236Y-100818066D01*
X199548700Y-100605242D01*
X198993735Y-100604758D01*
X198480828Y-100816687D01*
X198088066Y-101208764D01*
X198000046Y-101420738D01*
X197913313Y-101210828D01*
X197521236Y-100818066D01*
X197008700Y-100605242D01*
X196453735Y-100604758D01*
X195940828Y-100816687D01*
X195548066Y-101208764D01*
X195460046Y-101420738D01*
X195373313Y-101210828D01*
X194981236Y-100818066D01*
X194468700Y-100605242D01*
X193913735Y-100604758D01*
X193400828Y-100816687D01*
X193008066Y-101208764D01*
X192795242Y-101721300D01*
X192794758Y-102276265D01*
X192838198Y-102381400D01*
X192358971Y-102381400D01*
X192286089Y-102205011D01*
X191982686Y-101901078D01*
X191586068Y-101736387D01*
X191156616Y-101736013D01*
X190759711Y-101900011D01*
X190455778Y-102203414D01*
X190291087Y-102600032D01*
X190290713Y-103029484D01*
X190454711Y-103426389D01*
X190758114Y-103730322D01*
X191154732Y-103895013D01*
X191192509Y-103895045D01*
X191196482Y-103899018D01*
X191484894Y-104091729D01*
X191484895Y-104091729D01*
X191825100Y-104159400D01*
X195459600Y-104159400D01*
X195799805Y-104091729D01*
X195799806Y-104091729D01*
X196088218Y-103899018D01*
X196592354Y-103394881D01*
X197006265Y-103395242D01*
X197519172Y-103183313D01*
X197911934Y-102791236D01*
X197999953Y-102579261D01*
X198086687Y-102789172D01*
X198478764Y-103181934D01*
X198991300Y-103394758D01*
X199546265Y-103395242D01*
X200059172Y-103183313D01*
X200451934Y-102791236D01*
X200539953Y-102579261D01*
X200626687Y-102789172D01*
X201018764Y-103181934D01*
X201531300Y-103394758D01*
X202086265Y-103395242D01*
X202599172Y-103183313D01*
X202991934Y-102791236D01*
X203204758Y-102278700D01*
X203205242Y-101723735D01*
X203205242Y-107723735D01*
X202993313Y-107210828D01*
X202601236Y-106818066D01*
X202088700Y-106605242D01*
X201533735Y-106604758D01*
X201020828Y-106816687D01*
X200628066Y-107208764D01*
X200540046Y-107420738D01*
X200453313Y-107210828D01*
X200061236Y-106818066D01*
X199548700Y-106605242D01*
X198993735Y-106604758D01*
X198480828Y-106816687D01*
X198088066Y-107208764D01*
X198000046Y-107420738D01*
X197913313Y-107210828D01*
X197521236Y-106818066D01*
X197008700Y-106605242D01*
X196453735Y-106604758D01*
X195940828Y-106816687D01*
X195548066Y-107208764D01*
X195460046Y-107420738D01*
X195373313Y-107210828D01*
X194981236Y-106818066D01*
X194468700Y-106605242D01*
X193913735Y-106604758D01*
X193400828Y-106816687D01*
X193008066Y-107208764D01*
X192795242Y-107721300D01*
X192794758Y-108276265D01*
X193006687Y-108789172D01*
X193398764Y-109181934D01*
X193911300Y-109394758D01*
X194466265Y-109395242D01*
X194979172Y-109183313D01*
X195371934Y-108791236D01*
X195459953Y-108579261D01*
X195546687Y-108789172D01*
X195938764Y-109181934D01*
X196451300Y-109394758D01*
X197006265Y-109395242D01*
X197519172Y-109183313D01*
X197911934Y-108791236D01*
X197999953Y-108579261D01*
X198086687Y-108789172D01*
X198478764Y-109181934D01*
X198991300Y-109394758D01*
X199546265Y-109395242D01*
X200059172Y-109183313D01*
X200451934Y-108791236D01*
X200539953Y-108579261D01*
X200626687Y-108789172D01*
X201018764Y-109181934D01*
X201531300Y-109394758D01*
X202086265Y-109395242D01*
X202599172Y-109183313D01*
X202991934Y-108791236D01*
X203204758Y-108278700D01*
X203205242Y-107723735D01*
X203205242Y-113723735D01*
X202993313Y-113210828D01*
X202601236Y-112818066D01*
X202088700Y-112605242D01*
X201672114Y-112604878D01*
X199083218Y-110015982D01*
X198794806Y-109823271D01*
X198454600Y-109755600D01*
X191638336Y-109755600D01*
X189777718Y-107894982D01*
X189489306Y-107702271D01*
X189149100Y-107634600D01*
X180897563Y-107634600D01*
X180871986Y-107608978D01*
X180475368Y-107444287D01*
X180331374Y-107444161D01*
X184204680Y-103570855D01*
X184240884Y-103570887D01*
X184637789Y-103406889D01*
X184941722Y-103103486D01*
X185106413Y-102706868D01*
X185106787Y-102277416D01*
X184942789Y-101880511D01*
X184639386Y-101576578D01*
X184242768Y-101411887D01*
X183813316Y-101411513D01*
X183416411Y-101575511D01*
X183112478Y-101878914D01*
X182947787Y-102275532D01*
X182947754Y-102313309D01*
X177134304Y-108126759D01*
X176851616Y-108126513D01*
X176454711Y-108290511D01*
X176219273Y-108525537D01*
X174837900Y-107144164D01*
X174837900Y-105984626D01*
X175113314Y-106260522D01*
X175509932Y-106425213D01*
X175939384Y-106425587D01*
X176336289Y-106261589D01*
X176640222Y-105958186D01*
X176804913Y-105561568D01*
X176804945Y-105523790D01*
X176913018Y-105415718D01*
X177105729Y-105127306D01*
X177105730Y-105127305D01*
X177173400Y-104787100D01*
X177173400Y-99469563D01*
X177199022Y-99443986D01*
X177363713Y-99047368D01*
X177364087Y-98617916D01*
X177200089Y-98221011D01*
X176896686Y-97917078D01*
X176500068Y-97752387D01*
X176070616Y-97752013D01*
X175673711Y-97916011D01*
X175369778Y-98219414D01*
X175205087Y-98616032D01*
X175204713Y-99045484D01*
X175368711Y-99442389D01*
X175395400Y-99469124D01*
X175395400Y-104314315D01*
X175114911Y-104430211D01*
X174837900Y-104706738D01*
X174837900Y-104376863D01*
X174863522Y-104351286D01*
X175028213Y-103954668D01*
X175028587Y-103525216D01*
X174864589Y-103128311D01*
X174561186Y-102824378D01*
X174164568Y-102659687D01*
X173735116Y-102659313D01*
X173338211Y-102823311D01*
X173034278Y-103126714D01*
X172869587Y-103523332D01*
X172869213Y-103952784D01*
X173033211Y-104349689D01*
X173059900Y-104376424D01*
X173059900Y-107512400D01*
X173127571Y-107852606D01*
X173320282Y-108141018D01*
X176812482Y-111633218D01*
X177100894Y-111825929D01*
X177100895Y-111825930D01*
X177441100Y-111893600D01*
X188650200Y-111893600D01*
X188990405Y-111825929D01*
X188990406Y-111825929D01*
X189018763Y-111806980D01*
X189018764Y-111806980D01*
X189141184Y-111807087D01*
X189538089Y-111643089D01*
X189735893Y-111445629D01*
X192030700Y-113740436D01*
X192030700Y-114000000D01*
X192098371Y-114340206D01*
X192291082Y-114628618D01*
X192579494Y-114821329D01*
X192919700Y-114889000D01*
X193106340Y-114889000D01*
X193398764Y-115181934D01*
X193911300Y-115394758D01*
X194466265Y-115395242D01*
X194979172Y-115183313D01*
X195371934Y-114791236D01*
X195459953Y-114579261D01*
X195546687Y-114789172D01*
X195938764Y-115181934D01*
X196451300Y-115394758D01*
X197006265Y-115395242D01*
X197519172Y-115183313D01*
X197911934Y-114791236D01*
X197999953Y-114579261D01*
X198086687Y-114789172D01*
X198478764Y-115181934D01*
X198991300Y-115394758D01*
X199546265Y-115395242D01*
X200059172Y-115183313D01*
X200451934Y-114791236D01*
X200539953Y-114579261D01*
X200626687Y-114789172D01*
X201018764Y-115181934D01*
X201531300Y-115394758D01*
X202086265Y-115395242D01*
X202599172Y-115183313D01*
X202991934Y-114791236D01*
X203204758Y-114278700D01*
X203205242Y-113723735D01*
X203205242Y-119190000D01*
X190228187Y-119190000D01*
X190228187Y-115857416D01*
X190064189Y-115460511D01*
X189760786Y-115156578D01*
X189364168Y-114991887D01*
X188934716Y-114991513D01*
X188537811Y-115155511D01*
X188482124Y-115211100D01*
X171432236Y-115211100D01*
X165911455Y-109690319D01*
X165911487Y-109654116D01*
X165747489Y-109257211D01*
X165720800Y-109230475D01*
X165720800Y-104172100D01*
X165653129Y-103831895D01*
X165653129Y-103831894D01*
X165460418Y-103543482D01*
X163202480Y-101285544D01*
X163298327Y-101189699D01*
X163395000Y-100956310D01*
X163395000Y-100703691D01*
X163395000Y-99183691D01*
X163298327Y-98950302D01*
X163119699Y-98771673D01*
X162886310Y-98675000D01*
X162633691Y-98675000D01*
X161113691Y-98675000D01*
X160880302Y-98771673D01*
X160701673Y-98950301D01*
X160605000Y-99183690D01*
X160605000Y-99436309D01*
X160605000Y-100956309D01*
X160701673Y-101189698D01*
X160880301Y-101368327D01*
X161113690Y-101465000D01*
X161135804Y-101465000D01*
X161178671Y-101680506D01*
X161371382Y-101968918D01*
X163942800Y-104540336D01*
X163942800Y-109230036D01*
X163917178Y-109255614D01*
X163752487Y-109652232D01*
X163752113Y-110081684D01*
X163916111Y-110478589D01*
X164219514Y-110782522D01*
X164616132Y-110947213D01*
X164653909Y-110947245D01*
X170435382Y-116728718D01*
X170723794Y-116921429D01*
X170723795Y-116921429D01*
X171064000Y-116989100D01*
X188544108Y-116989100D01*
X188932832Y-117150513D01*
X189362284Y-117150887D01*
X189759189Y-116986889D01*
X190063122Y-116683486D01*
X190227813Y-116286868D01*
X190228187Y-115857416D01*
X190228187Y-119190000D01*
X163482987Y-119190000D01*
X163987909Y-118685959D01*
X164313628Y-117901541D01*
X164314370Y-117052185D01*
X163990020Y-116267200D01*
X163395242Y-115671383D01*
X163395242Y-107923735D01*
X163183313Y-107410828D01*
X162791236Y-107018066D01*
X162579261Y-106930046D01*
X162789172Y-106843313D01*
X163181934Y-106451236D01*
X163394758Y-105938700D01*
X163395242Y-105383735D01*
X163183313Y-104870828D01*
X162791236Y-104478066D01*
X162278700Y-104265242D01*
X161723735Y-104264758D01*
X161210828Y-104476687D01*
X160818066Y-104868764D01*
X160605242Y-105381300D01*
X160604758Y-105936265D01*
X160816687Y-106449172D01*
X161208764Y-106841934D01*
X161420738Y-106929953D01*
X161210828Y-107016687D01*
X160818066Y-107408764D01*
X160605242Y-107921300D01*
X160604758Y-108476265D01*
X160816687Y-108989172D01*
X161171894Y-109345000D01*
X161113691Y-109345000D01*
X160880302Y-109441673D01*
X160701673Y-109620301D01*
X160605000Y-109853690D01*
X160605000Y-110106309D01*
X160605000Y-111626309D01*
X160701673Y-111859698D01*
X160880301Y-112038327D01*
X161113690Y-112135000D01*
X161366309Y-112135000D01*
X162886309Y-112135000D01*
X163119698Y-112038327D01*
X163298327Y-111859699D01*
X163395000Y-111626310D01*
X163395000Y-111373691D01*
X163395000Y-109853691D01*
X163298327Y-109620302D01*
X163119699Y-109441673D01*
X162886310Y-109345000D01*
X162827551Y-109345000D01*
X163181934Y-108991236D01*
X163394758Y-108478700D01*
X163395242Y-107923735D01*
X163395242Y-115671383D01*
X163389959Y-115666091D01*
X162605541Y-115340372D01*
X161756185Y-115339630D01*
X160971200Y-115663980D01*
X160370091Y-116264041D01*
X160310000Y-116408756D01*
X160310000Y-92507478D01*
X160367980Y-92647800D01*
X160968041Y-93248909D01*
X161752459Y-93574628D01*
X162601815Y-93575370D01*
X163386800Y-93251020D01*
X163987909Y-92650959D01*
X164313628Y-91866541D01*
X164314370Y-91017185D01*
X163990020Y-90232200D01*
X163468730Y-89710000D01*
X204197038Y-89710000D01*
X203677091Y-90229041D01*
X203351372Y-91013459D01*
X203350630Y-91862815D01*
X203674980Y-92647800D01*
X204275041Y-93248909D01*
X205059459Y-93574628D01*
X205908815Y-93575370D01*
X206693800Y-93251020D01*
X207090000Y-92855510D01*
X207090000Y-116059818D01*
M02*
