M48
;DRILL file {pcbnew (2014-09-22 BZR 5144)-product} date 10/3/2014 22:18:48
;FORMAT={-:-/ absolute / metric / decimal}
FMAT,2
METRIC,TZ
T1C0.635
T2C0.850
T3C2.499
%
G90
G05
M71
T1
X164.832Y-109.868
X172.871Y-110.407
X173.949Y-103.739
X175.726Y-105.346
X176.284Y-98.832
X177.065Y-109.206
X180.26Y-108.524
X180.409Y-103.17
X183.192Y-110.034
X184.027Y-102.491
X184.383Y-115.147
X188.927Y-110.727
X189.148Y-116.071
X191.37Y-102.816
T2
X162.Y-97.53
X162.Y-100.07
X162.Y-105.66
X162.Y-108.2
X162.Y-110.74
X194.19Y-96.
X194.19Y-102.
X194.19Y-108.
X194.19Y-114.
X196.73Y-96.
X196.73Y-102.
X196.73Y-108.
X196.73Y-114.
X199.27Y-96.
X199.27Y-102.
X199.27Y-108.
X199.27Y-114.
X201.81Y-96.
X201.81Y-102.
X201.81Y-108.
X201.81Y-114.
T3
X162.179Y-91.44
X162.179Y-117.475
X205.486Y-91.44
X205.486Y-117.475
T0
M30
